<svg width="51" height="50" viewBox="0 0 51 50" fill="none" xmlns="http://www.w3.org/2000/svg">
<g id="Icons">
<path id="Vector" d="M25.5431 2.791C24.3741 1.62 22.4701 1.622 21.3011 2.791C20.1311 3.961 20.1311 5.864 21.3011 7.034L21.3531 7.086L13.6541 24.408L6.61408 31.448C4.66608 33.397 4.66608 36.57 6.61408 38.519L8.95808 40.862C9.90108 41.806 11.1571 42.327 12.4931 42.327C13.8291 42.327 15.0851 41.806 16.0281 40.862L17.4931 39.397L25.7861 47.69C26.6701 48.575 27.8321 49.016 28.9931 49.016C30.1541 49.016 31.3161 48.575 32.2001 47.69C33.9691 45.921 33.9691 43.044 32.2001 41.276L30.4931 39.569V33.983C30.4931 33.43 30.0461 32.983 29.4931 32.983H24.9541L40.4621 26.091C40.9411 26.399 41.4961 26.569 42.0791 26.569C42.8801 26.569 43.6341 26.257 44.2001 25.69C45.3701 24.52 45.3701 22.618 44.2001 21.448L25.5431 2.791ZM14.6141 39.448C13.4811 40.581 11.5051 40.581 10.3721 39.448L8.02808 37.105C6.85908 35.935 6.85908 34.032 8.02808 32.862L14.4931 26.397L21.0791 32.983L14.6141 39.448ZM31.5281 44.483C31.5281 45.16 31.2641 45.796 30.7861 46.276C29.7981 47.264 28.1881 47.264 27.2001 46.276L18.9071 37.983L22.4931 34.397L28.7851 40.689C28.7861 40.69 28.7871 40.691 28.7871 40.691L30.7861 42.69C31.2651 43.17 31.5281 43.807 31.5281 44.483ZM28.4931 37.569L25.9071 34.983H28.4931V37.569ZM22.7141 31.791L15.6861 24.763L22.8151 8.72L38.7561 24.661L22.7141 31.791ZM42.7861 24.276C42.4071 24.654 41.7501 24.655 41.3731 24.276L22.7151 5.62C22.3251 5.229 22.3251 4.596 22.7151 4.206C22.9101 4.011 23.1661 3.913 23.4221 3.913C23.6781 3.913 23.9351 4.011 24.1291 4.205L42.7861 22.862C43.1761 23.252 43.1761 23.887 42.7861 24.276ZM38.4461 9.937C38.7021 9.937 38.9581 9.839 39.1531 9.644L44.1531 4.644C44.5441 4.253 44.5441 3.621 44.1531 3.23C43.7621 2.839 43.1301 2.839 42.7391 3.23L37.7391 8.23C37.3481 8.621 37.3481 9.253 37.7391 9.644C37.9351 9.839 38.1901 9.937 38.4461 9.937ZM34.4931 7.983C35.0461 7.983 35.4931 7.536 35.4931 6.983V1.983C35.4931 1.43 35.0461 0.983002 34.4931 0.983002C33.9401 0.983002 33.4931 1.43 33.4931 1.983V6.983C33.4931 7.536 33.9401 7.983 34.4931 7.983ZM45.4931 11.983H40.4931C39.9401 11.983 39.4931 12.43 39.4931 12.983C39.4931 13.536 39.9401 13.983 40.4931 13.983H45.4931C46.0461 13.983 46.4931 13.536 46.4931 12.983C46.4931 12.43 46.0461 11.983 45.4931 11.983Z" fill="#916A24"/>
</g>
</svg>
