<svg width="50" height="50" viewBox="0 0 50 50" fill="none" xmlns="http://www.w3.org/2000/svg">
<g id="Icons">
<path id="Vector" d="M26.0001 1C20.5001 1 16.0001 5.5 16.0001 11C16.0001 16.1635 19.9657 20.4446 25.0021 20.9492C25.001 20.9661 25.0003 20.9831 25.0001 21V28.373C24.0651 26.9295 22.78 25.4254 20.7872 24.2988C20.8036 24.2244 20.8115 24.1484 20.8107 24.0723C20.7961 20.9531 18.3725 18.7624 16.2364 17.9551H16.2345C15.2751 17.5926 14.2497 17.4644 13.2072 17.5527C10.0776 17.818 6.7892 20.0255 4.63879 23.6328C4.546 23.789 4.49752 23.9676 4.49855 24.1493C4.49958 24.3309 4.55009 24.5089 4.64465 24.6641C7.5578 29.4459 12.4688 31.7183 16.295 30.2305C17.1147 29.9112 17.948 29.3944 18.6876 28.6973C18.8806 28.5152 18.9933 28.2639 19.001 27.9987C19.0087 27.7335 18.9107 27.4762 18.7286 27.2832C18.5466 27.0902 18.2953 26.9775 18.0301 26.9698C17.7649 26.9621 17.5075 27.0601 17.3146 27.2422C16.7662 27.7591 16.1248 28.1505 15.5685 28.3672C13.1069 29.323 9.31965 27.8597 6.76965 24.1387C9.28447 20.3913 13.0575 18.8921 15.5275 19.8262H15.5294C16.804 20.3075 18.3749 21.6805 18.7325 23.3867C15.5059 22.2915 12.6727 22.8219 11.7775 23.0254C11.6464 23.0516 11.5219 23.1037 11.4113 23.1788C11.3008 23.2539 11.2064 23.3504 11.1337 23.4626C11.0611 23.5748 11.0117 23.7004 10.9884 23.832C10.9651 23.9636 10.9685 24.0986 10.9982 24.2289C11.028 24.3592 11.0836 24.4822 11.1617 24.5907C11.2398 24.6991 11.3389 24.7908 11.453 24.8603C11.5672 24.9298 11.6941 24.9758 11.8263 24.9954C11.9585 25.015 12.0933 25.008 12.2228 24.9746C13.1138 24.772 16.2677 24.1767 19.5372 25.8867C23.6325 28.0282 24.7443 32.0718 24.9611 33H16.0001C15.7349 33 15.4806 33.1054 15.293 33.2929C15.1055 33.4805 15.0001 33.7348 15.0001 34V38C15.0001 38.2652 15.1055 38.5195 15.293 38.7071C15.4806 38.8946 15.7349 39 16.0001 39H16.1798C16.793 42.0648 17.4063 45.1303 18.0197 48.1953C18.0648 48.4221 18.1872 48.6263 18.366 48.773C18.5448 48.9197 18.7689 48.9999 19.0001 49H33.0001C33.2314 48.9999 33.4555 48.9197 33.6342 48.773C33.813 48.6263 33.9354 48.4221 33.9806 48.1953C34.594 45.1303 35.2073 42.0648 35.8204 39H36.0001C36.2653 39 36.5197 38.8946 36.7072 38.7071C36.8947 38.5195 37.0001 38.2652 37.0001 38V34C37.0001 33.7348 36.8947 33.4805 36.7072 33.2929C36.5197 33.1054 36.2653 33 36.0001 33H27.0529C27.3618 32.0168 28.0555 30.3001 29.6935 28.7207C31.8241 26.6656 34.2417 26.139 35.1642 25.9863C35.4134 25.9475 35.6388 25.8159 35.7952 25.618C35.9515 25.42 36.0273 25.1703 36.0073 24.9188C35.9872 24.6673 35.8729 24.4327 35.6873 24.262C35.5016 24.0912 35.2582 23.997 35.006 23.998C34.949 23.9984 34.8922 24.0036 34.8361 24.0137C34.2355 24.1131 33.0912 24.3582 31.7657 24.9531C32.0613 24.1578 32.6303 23.439 33.1642 23.0605C34.6737 21.9905 37.5887 22.3151 40.0958 24.4531C38.9234 27.5319 36.5214 29.2154 34.6837 29.002C34.3159 28.9593 33.8664 28.8333 33.4376 28.625C33.3195 28.5675 33.1912 28.5339 33.0601 28.526C32.929 28.5181 32.7976 28.5361 32.6734 28.579C32.5493 28.6218 32.4348 28.6888 32.3365 28.7759C32.2382 28.8631 32.158 28.9687 32.1005 29.0868C32.0431 29.205 32.0094 29.3332 32.0016 29.4644C31.9937 29.5955 32.0117 29.7269 32.0546 29.851C32.0975 29.9752 32.1645 30.0897 32.2517 30.188C32.3388 30.2862 32.4445 30.3664 32.5626 30.4238C33.1918 30.7295 33.837 30.9169 34.4532 30.9883C37.7395 31.37 41.0232 28.6255 42.2853 24.4238C42.3376 24.2496 42.3414 24.0645 42.2963 23.8883C42.2512 23.7121 42.159 23.5515 42.0294 23.4238C39.6859 21.1146 36.7396 20.0708 34.2736 20.5C33.4516 20.6431 32.6828 20.9493 32.0079 21.4277C30.7013 22.3539 29.4747 24.0771 29.5626 26.168C29.5638 26.1902 29.5658 26.2123 29.5685 26.2344C29.1454 26.5433 28.7215 26.8793 28.3068 27.2793C27.7991 27.7688 27.37 28.2723 27.0001 28.7695V21C26.9999 20.9831 26.9993 20.9661 26.9982 20.9492C32.0345 20.4446 36.0001 16.1635 36.0001 11C36.0001 5.5 31.5001 1 26.0001 1ZM26.0001 3C30.4001 3 34.0001 6.6 34.0001 11C34.0001 15.4 30.4001 19 26.0001 19C21.6001 19 18.0001 15.4 18.0001 11C18.0001 6.6 21.6001 3 26.0001 3ZM25.6993 4.40039V5.90039C24.7993 5.90039 22.9005 6.59922 22.9005 8.69922C22.9005 12.1992 27.4005 11.3 27.4005 13.5C27.4005 13.7 27.3997 14.6992 26.0997 14.6992C24.5997 14.6992 24.5997 13.3 24.5997 13H22.5997C22.5997 16 25.1997 16.3008 25.5997 16.3008V17.6992H26.6993V16.3008C27.0993 16.3008 29.5001 16 29.5001 13.5C29.5001 10 25.0001 10.7992 25.0001 8.69922C25.0001 8.49922 24.9997 7.50039 26.0997 7.40039C27.2997 7.40039 27.4005 8.49961 27.4005 9.09961H29.4005C29.4005 6.49961 27.5009 6.00039 26.8009 5.90039V4.40039H25.6993ZM17.0001 35H35.0001V37H17.0001V35ZM18.2189 39H33.7814C33.2479 41.6668 32.7133 44.3335 32.1798 47H19.8204C19.287 44.3335 18.7523 41.6668 18.2189 39Z" fill="#916A24"/>
</g>
</svg>
