<svg width="200" height="200" viewBox="0 0 200 200" fill="none" xmlns="http://www.w3.org/2000/svg">
<path d="M42.7801 149.665C42.8101 149.665 42.8251 149.635 42.8501 149.635C42.2701 149.2 41.6751 148.785 41.1101 148.335C41.3751 149.075 41.9501 149.665 42.7801 149.665Z" fill="#D9AF62" fill-opacity="0.2"/>
<path d="M56.22 161.535C55.13 161.535 54.25 162.42 54.25 163.51C54.25 164.6 55.135 165.485 56.22 165.485C57.31 165.485 58.195 164.6 58.195 163.51C58.19 162.42 57.305 161.535 56.22 161.535Z" fill="#D9AF62" fill-opacity="0.2"/>
<path d="M63.75 160.915C63.75 162.005 64.63 162.89 65.72 162.89C66.35 162.89 66.845 162.55 67.21 162.09C66.04 161.735 64.905 161.3 63.76 160.89C63.76 160.9 63.75 160.905 63.75 160.915Z" fill="#D9AF62" fill-opacity="0.2"/>
<path d="M64.5652 168.33C63.4752 168.33 62.5952 169.215 62.5952 170.305C62.5952 171.395 63.4802 172.28 64.5652 172.28C65.6552 172.28 66.5402 171.395 66.5402 170.305C66.5402 169.215 65.6552 168.33 64.5652 168.33Z" fill="#D9AF62" fill-opacity="0.2"/>
<path d="M72.8952 175.09C71.8302 175.09 70.9702 175.95 70.9702 177.015C70.9702 178.08 71.8302 178.94 72.8952 178.94C73.9602 178.94 74.8202 178.08 74.8202 177.015C74.8202 175.95 73.9602 175.09 72.8952 175.09Z" fill="#D9AF62" fill-opacity="0.2"/>
<path d="M83.225 179.26C82.14 179.26 81.26 180.14 81.26 181.22C81.26 182.305 82.14 183.18 83.225 183.18C84.31 183.18 85.185 182.3 85.185 181.22C85.185 180.135 84.305 179.26 83.225 179.26Z" fill="#D9AF62" fill-opacity="0.2"/>
<path d="M93.2001 181.07C92.1101 181.07 91.2251 181.955 91.2251 183.04C91.2251 184.13 92.1101 185.015 93.2001 185.015C94.2901 185.015 95.1701 184.13 95.1701 183.04C95.1751 181.95 94.2901 181.07 93.2001 181.07Z" fill="#D9AF62" fill-opacity="0.2"/>
<path d="M99.0851 173.385C97.9951 173.385 97.1101 174.27 97.1101 175.36C97.1101 176.45 97.9951 177.335 99.0851 177.335C100.175 177.335 101.06 176.45 101.06 175.36C101.06 174.27 100.175 173.385 99.0851 173.385Z" fill="#D9AF62" fill-opacity="0.2"/>
<path d="M108.405 175.145C107.315 175.145 106.43 176.03 106.43 177.12C106.43 178.21 107.315 179.095 108.405 179.095C109.495 179.095 110.375 178.21 110.375 177.12C110.375 176.03 109.495 175.145 108.405 175.145Z" fill="#D9AF62" fill-opacity="0.2"/>
<path d="M103.075 182.92C101.985 182.92 101.105 183.805 101.105 184.895C101.105 185.985 101.985 186.87 103.075 186.87C104.165 186.87 105.05 185.985 105.05 184.895C105.045 183.805 104.165 182.92 103.075 182.92Z" fill="#D9AF62" fill-opacity="0.2"/>
<path d="M113.755 183.655C112.665 183.655 111.78 184.54 111.78 185.63C111.78 186.72 112.665 187.605 113.755 187.605C114.845 187.605 115.725 186.72 115.725 185.63C115.73 184.54 114.845 183.655 113.755 183.655Z" fill="#D9AF62" fill-opacity="0.2"/>
<path d="M124.025 181.075C122.935 181.075 122.055 181.96 122.055 183.05C122.055 184.14 122.94 185.025 124.025 185.025C125.115 185.025 126 184.14 126 183.05C125.995 181.96 125.115 181.075 124.025 181.075Z" fill="#D9AF62" fill-opacity="0.2"/>
<path d="M118.03 174.22C116.94 174.22 116.06 175.105 116.06 176.195C116.06 177.285 116.94 178.17 118.03 178.17C119.12 178.17 120.005 177.285 120.005 176.195C120 175.1 119.115 174.22 118.03 174.22Z" fill="#D9AF62" fill-opacity="0.2"/>
<path d="M127.31 171.22C126.22 171.22 125.34 172.105 125.34 173.195C125.34 174.285 126.22 175.17 127.31 175.17C128.4 175.17 129.28 174.285 129.28 173.195C129.285 172.105 128.4 171.22 127.31 171.22Z" fill="#D9AF62" fill-opacity="0.2"/>
<path d="M133.65 178.715C132.56 178.715 131.675 179.6 131.675 180.69C131.675 181.78 132.56 182.665 133.65 182.665C134.74 182.665 135.625 181.78 135.625 180.69C135.625 179.595 134.74 178.715 133.65 178.715Z" fill="#D9AF62" fill-opacity="0.2"/>
<path d="M142.45 174.66C141.36 174.66 140.475 175.545 140.475 176.63C140.475 177.72 141.36 178.605 142.45 178.605C143.54 178.605 144.425 177.72 144.425 176.63C144.425 175.545 143.54 174.66 142.45 174.66Z" fill="#D9AF62" fill-opacity="0.2"/>
<path d="M136.27 167.745C135.18 167.745 134.3 168.63 134.3 169.72C134.3 170.81 135.185 171.695 136.27 171.695C137.36 171.695 138.245 170.81 138.245 169.72C138.245 168.625 137.36 167.745 136.27 167.745Z" fill="#D9AF62" fill-opacity="0.2"/>
<path d="M129.875 160.89C128.785 160.89 127.9 161.775 127.9 162.865C127.9 163.955 128.785 164.84 129.875 164.84C130.965 164.84 131.845 163.955 131.845 162.865C131.845 161.775 130.965 160.89 129.875 160.89Z" fill="#D9AF62" fill-opacity="0.2"/>
<path d="M122.745 165.97C122.745 164.88 121.86 163.995 120.77 163.995C119.68 163.995 118.795 164.88 118.795 165.97C118.795 167.06 119.68 167.945 120.77 167.945C121.865 167.945 122.745 167.06 122.745 165.97Z" fill="#D9AF62" fill-opacity="0.2"/>
<path d="M114.4 168.655C114.4 167.565 113.515 166.68 112.425 166.68C111.335 166.68 110.455 167.565 110.455 168.655C110.455 169.745 111.34 170.625 112.425 170.625C113.515 170.63 114.4 169.745 114.4 168.655Z" fill="#D9AF62" fill-opacity="0.2"/>
<path d="M103.97 165.31C102.88 165.31 101.995 166.195 101.995 167.28C101.995 168.37 102.88 169.255 103.97 169.255C105.06 169.255 105.94 168.37 105.94 167.28C105.94 166.19 105.06 165.31 103.97 165.31Z" fill="#D9AF62" fill-opacity="0.2"/>
<path d="M84.5251 165.75C84.9901 165.75 85.3801 165.525 85.7201 165.255C84.8501 165.21 83.9701 165.195 83.1101 165.125C83.4701 165.5 83.9601 165.75 84.5251 165.75Z" fill="#D9AF62" fill-opacity="0.2"/>
<path d="M89.8151 171.7C88.7251 171.7 87.8401 172.585 87.8401 173.675C87.8401 174.765 88.7251 175.65 89.8151 175.65C90.9051 175.65 91.7851 174.765 91.7851 173.675C91.7851 172.585 90.9051 171.7 89.8151 171.7Z" fill="#D9AF62" fill-opacity="0.2"/>
<path d="M83.05 172.26C83.05 171.17 82.165 170.285 81.075 170.285C79.985 170.285 79.105 171.17 79.105 172.26C79.105 173.35 79.985 174.235 81.075 174.235C82.165 174.23 83.05 173.35 83.05 172.26Z" fill="#D9AF62" fill-opacity="0.2"/>
<path d="M73.8301 164.85C72.7401 164.85 71.8601 165.735 71.8601 166.825C71.8601 167.915 72.7451 168.795 73.8301 168.795C74.9201 168.795 75.8051 167.91 75.8051 166.825C75.8051 165.735 74.9201 164.85 73.8301 164.85Z" fill="#D9AF62" fill-opacity="0.2"/>
<path d="M166.295 113.075C165.205 113.075 164.325 113.96 164.325 115.045C164.325 116.135 165.21 117.02 166.295 117.02C167.385 117.02 168.27 116.135 168.27 115.045C168.27 113.955 167.385 113.075 166.295 113.075Z" fill="#D9AF62" fill-opacity="0.2"/>
<path d="M166.225 121.82C165.135 121.82 164.25 122.705 164.25 123.795C164.25 124.885 165.135 125.77 166.225 125.77C167.315 125.77 168.195 124.885 168.195 123.795C168.195 122.705 167.315 121.82 166.225 121.82Z" fill="#D9AF62" fill-opacity="0.2"/>
<path d="M164.39 131.355C164.39 130.265 163.505 129.38 162.415 129.38C161.325 129.38 160.445 130.265 160.445 131.355C160.445 132.445 161.33 133.33 162.415 133.33C163.505 133.33 164.39 132.445 164.39 131.355Z" fill="#D9AF62" fill-opacity="0.2"/>
<path d="M155.71 139.44C155.71 140.53 156.595 141.415 157.685 141.415C158.775 141.415 159.655 140.53 159.655 139.44C159.655 138.35 158.77 137.465 157.685 137.465C156.595 137.465 155.71 138.35 155.71 139.44Z" fill="#D9AF62" fill-opacity="0.2"/>
<path d="M152.27 145.92C151.18 145.92 150.295 146.805 150.295 147.895C150.295 148.985 151.18 149.87 152.27 149.87C153.36 149.87 154.24 148.985 154.24 147.895C154.245 146.805 153.36 145.92 152.27 145.92Z" fill="#D9AF62" fill-opacity="0.2"/>
<path d="M139.555 148.45C139.555 149.54 140.44 150.425 141.53 150.425C142.62 150.425 143.505 149.54 143.505 148.45C143.505 147.36 142.62 146.475 141.53 146.475C141.085 146.475 140.725 146.7 140.395 146.945C140.275 147.045 140.165 147.16 140.045 147.26C139.78 147.6 139.555 147.985 139.555 148.45Z" fill="#D9AF62" fill-opacity="0.2"/>
<path d="M141.12 159.06C141.12 157.97 140.235 157.085 139.145 157.085C138.055 157.085 137.175 157.97 137.175 159.06C137.175 160.15 138.06 161.035 139.145 161.035C140.235 161.035 141.12 160.15 141.12 159.06Z" fill="#D9AF62" fill-opacity="0.2"/>
<path d="M150.525 156.79C150.525 155.7 149.64 154.815 148.55 154.815C147.46 154.815 146.58 155.7 146.58 156.79C146.58 157.88 147.465 158.765 148.55 158.765C149.64 158.76 150.525 157.875 150.525 156.79Z" fill="#D9AF62" fill-opacity="0.2"/>
<path d="M158.39 153.375C157.3 153.375 156.415 154.26 156.415 155.35C156.415 156.44 157.3 157.325 158.39 157.325C159.48 157.325 160.365 156.44 160.365 155.35C160.365 154.26 159.48 153.375 158.39 153.375Z" fill="#D9AF62" fill-opacity="0.2"/>
<path d="M145.41 164.295C144.32 164.295 143.435 165.18 143.435 166.27C143.435 167.36 144.32 168.245 145.41 168.245C146.5 168.245 147.385 167.36 147.385 166.27C147.385 165.18 146.5 164.295 145.41 164.295Z" fill="#D9AF62" fill-opacity="0.2"/>
<path d="M151.495 171.11C150.425 171.11 149.56 171.975 149.56 173.045C149.56 174.115 150.425 174.98 151.495 174.98C152.565 174.98 153.43 174.115 153.43 173.045C153.43 171.975 152.565 171.11 151.495 171.11Z" fill="#D9AF62" fill-opacity="0.2"/>
<path d="M155.625 162.99C154.535 162.99 153.65 163.875 153.65 164.965C153.65 166.055 154.535 166.94 155.625 166.94C156.715 166.94 157.595 166.055 157.595 164.965C157.595 163.87 156.71 162.99 155.625 162.99Z" fill="#D9AF62" fill-opacity="0.2"/>
<path d="M164.66 164.27C165.715 164.27 166.57 163.415 166.57 162.36C166.57 161.305 165.715 160.45 164.66 160.45C163.605 160.45 162.75 161.305 162.75 162.36C162.75 163.415 163.605 164.27 164.66 164.27Z" fill="#D9AF62" fill-opacity="0.2"/>
<path d="M168.735 151.76C167.645 151.76 166.76 152.645 166.76 153.735C166.76 154.825 167.645 155.71 168.735 155.71C169.825 155.71 170.705 154.825 170.705 153.735C170.705 152.645 169.825 151.76 168.735 151.76Z" fill="#D9AF62" fill-opacity="0.2"/>
<path d="M165.105 146.705C165.105 145.615 164.22 144.735 163.13 144.735C162.04 144.735 161.16 145.62 161.16 146.705C161.16 147.795 162.045 148.68 163.13 148.68C164.22 148.68 165.105 147.795 165.105 146.705Z" fill="#D9AF62" fill-opacity="0.2"/>
<path d="M168.655 140.855C169.745 140.855 170.625 139.97 170.625 138.88C170.625 137.79 169.74 136.905 168.655 136.905C167.565 136.905 166.68 137.79 166.68 138.88C166.68 139.97 167.565 140.855 168.655 140.855Z" fill="#D9AF62" fill-opacity="0.2"/>
<path d="M174.895 144.395C173.815 144.395 172.94 145.27 172.94 146.35C172.94 147.43 173.815 148.305 174.895 148.305C175.975 148.305 176.85 147.43 176.85 146.35C176.855 145.27 175.975 144.395 174.895 144.395Z" fill="#D9AF62" fill-opacity="0.2"/>
<path d="M178.98 134.91C177.89 134.91 177.005 135.795 177.005 136.885C177.005 137.975 177.89 138.86 178.98 138.86C180.07 138.86 180.955 137.975 180.955 136.885C180.955 135.79 180.07 134.91 178.98 134.91Z" fill="#D9AF62" fill-opacity="0.2"/>
<path d="M174.855 130.06C174.855 128.97 173.97 128.085 172.88 128.085C171.79 128.085 170.905 128.97 170.905 130.06C170.905 131.15 171.79 132.035 172.88 132.035C173.975 132.035 174.855 131.15 174.855 130.06Z" fill="#D9AF62" fill-opacity="0.2"/>
<path d="M182.295 124.63C181.205 124.63 180.32 125.515 180.32 126.605C180.32 127.695 181.205 128.58 182.295 128.58C183.385 128.58 184.265 127.695 184.265 126.605C184.27 125.515 183.385 124.63 182.295 124.63Z" fill="#D9AF62" fill-opacity="0.2"/>
<path d="M175.04 118.245C173.95 118.245 173.065 119.13 173.065 120.22C173.065 121.31 173.95 122.195 175.04 122.195C176.13 122.195 177.01 121.31 177.01 120.22C177.01 119.13 176.13 118.245 175.04 118.245Z" fill="#D9AF62" fill-opacity="0.2"/>
<path d="M183.495 113.885C182.405 113.885 181.525 114.77 181.525 115.86C181.525 116.95 182.41 117.835 183.495 117.835C184.585 117.835 185.47 116.95 185.47 115.86C185.47 114.77 184.585 113.885 183.495 113.885Z" fill="#D9AF62" fill-opacity="0.2"/>
<path d="M184.325 103.105C183.24 103.105 182.355 103.985 182.355 105.075C182.355 106.16 183.235 107.045 184.325 107.045C185.41 107.045 186.295 106.165 186.295 105.075C186.29 103.985 185.41 103.105 184.325 103.105Z" fill="#D9AF62" fill-opacity="0.2"/>
<path d="M180.74 94.025C180.74 95.11 181.62 95.995 182.71 95.995C183.8 95.995 184.68 95.115 184.68 94.025C184.68 92.94 183.8 92.055 182.71 92.055C181.62 92.055 180.74 92.935 180.74 94.025Z" fill="#D9AF62" fill-opacity="0.2"/>
<path d="M175.565 98.605C174.475 98.605 173.59 99.49 173.59 100.58C173.59 101.67 174.475 102.555 175.565 102.555C176.655 102.555 177.535 101.67 177.535 100.58C177.54 99.485 176.655 98.605 175.565 98.605Z" fill="#D9AF62" fill-opacity="0.2"/>
<path d="M175.4 108.4C174.31 108.4 173.425 109.285 173.425 110.375C173.425 111.465 174.31 112.35 175.4 112.35C176.49 112.35 177.37 111.465 177.37 110.375C177.375 109.28 176.49 108.4 175.4 108.4Z" fill="#D9AF62" fill-opacity="0.2"/>
<path d="M173.62 92.4C174.71 92.4 175.595 91.515 175.595 90.425C175.595 89.335 174.71 88.45 173.62 88.45C172.53 88.45 171.645 89.335 171.645 90.425C171.645 91.515 172.53 92.4 173.62 92.4Z" fill="#D9AF62" fill-opacity="0.2"/>
<path d="M179.8 85.235C180.89 85.235 181.775 84.35 181.775 83.265C181.775 82.175 180.89 81.29 179.8 81.29C178.71 81.29 177.825 82.175 177.825 83.265C177.825 84.35 178.71 85.235 179.8 85.235Z" fill="#D9AF62" fill-opacity="0.2"/>
<path d="M175.435 75.52C176.52 75.52 177.4 74.64 177.4 73.55C177.4 72.465 176.52 71.58 175.435 71.58C174.35 71.58 173.465 72.46 173.465 73.55C173.465 74.64 174.35 75.52 175.435 75.52Z" fill="#D9AF62" fill-opacity="0.2"/>
<path d="M170.005 66.51C171.085 66.51 171.96 65.635 171.96 64.555C171.96 63.475 171.085 62.6 170.005 62.6C168.925 62.6 168.05 63.475 168.05 64.555C168.05 65.635 168.925 66.51 170.005 66.51Z" fill="#D9AF62" fill-opacity="0.2"/>
<path d="M70.5502 64.44C71.6402 64.44 72.5202 63.555 72.5202 62.465C72.5202 61.375 71.6402 60.49 70.5502 60.49C69.4602 60.49 68.5752 61.375 68.5752 62.465C68.5802 63.555 69.4602 64.44 70.5502 64.44Z" fill="#D9AF62" fill-opacity="0.2"/>
<path d="M74.3551 72.685C75.4451 72.685 76.3301 71.8 76.3301 70.71C76.3301 69.62 75.4451 68.735 74.3551 68.735C73.2651 68.735 72.3801 69.62 72.3801 70.71C72.3801 71.805 73.2651 72.685 74.3551 72.685Z" fill="#D9AF62" fill-opacity="0.2"/>
<path d="M64.7501 72.87C65.8401 72.87 66.725 71.985 66.725 70.9C66.725 69.81 65.8401 68.925 64.7501 68.925C63.6601 68.925 62.7801 69.81 62.7801 70.9C62.7751 71.99 63.6601 72.87 64.7501 72.87Z" fill="#D9AF62" fill-opacity="0.2"/>
<path d="M57.51 78.535C58.6 78.535 59.485 77.65 59.485 76.565C59.485 75.475 58.6 74.59 57.51 74.59C56.42 74.59 55.54 75.475 55.54 76.565C55.54 77.65 56.425 78.535 57.51 78.535Z" fill="#D9AF62" fill-opacity="0.2"/>
<path d="M57.9251 90.585C56.8351 90.585 55.9551 91.47 55.9551 92.56C55.9551 93.65 56.8401 94.535 57.9251 94.535C59.0151 94.535 59.9001 93.65 59.9001 92.56C59.9001 91.47 59.0151 90.585 57.9251 90.585Z" fill="#D9AF62" fill-opacity="0.2"/>
<path d="M67.5252 106.05C66.4352 106.05 65.5552 106.935 65.5552 108.025C65.5552 109.115 66.4402 110 67.5252 110C68.6152 110 69.5002 109.115 69.5002 108.025C69.4952 106.935 68.6152 106.05 67.5252 106.05Z" fill="#D9AF62" fill-opacity="0.2"/>
<path d="M62.35 102.6C63.44 102.6 64.32 101.715 64.32 100.625C64.32 99.535 63.435 98.65 62.35 98.65C61.26 98.65 60.375 99.535 60.375 100.625C60.38 101.715 61.26 102.6 62.35 102.6Z" fill="#D9AF62" fill-opacity="0.2"/>
<path d="M70.2301 95.495C69.1401 95.495 68.2551 96.38 68.2551 97.47C68.2551 98.56 69.1401 99.445 70.2301 99.445C71.3201 99.445 72.2001 98.56 72.2001 97.47C72.2051 96.38 71.3201 95.495 70.2301 95.495Z" fill="#D9AF62" fill-opacity="0.2"/>
<path d="M64.4702 90.15C64.4702 91.24 65.3552 92.125 66.4452 92.125C67.5352 92.125 68.4202 91.24 68.4202 90.15C68.4202 89.06 67.5352 88.175 66.4452 88.175C65.3552 88.175 64.4702 89.06 64.4702 90.15Z" fill="#D9AF62" fill-opacity="0.2"/>
<path d="M62.495 84.905C63.585 84.905 64.47 84.02 64.47 82.93C64.47 81.84 63.585 80.955 62.495 80.955C61.405 80.955 60.52 81.84 60.52 82.93C60.52 84.02 61.405 84.905 62.495 84.905Z" fill="#D9AF62" fill-opacity="0.2"/>
<path d="M70.4052 80.875C71.4952 80.875 72.3752 79.99 72.3752 78.9C72.3752 77.81 71.4952 76.925 70.4052 76.925C69.3152 76.925 68.4302 77.81 68.4302 78.9C68.4302 79.99 69.3152 80.875 70.4052 80.875Z" fill="#D9AF62" fill-opacity="0.2"/>
<path d="M74.5351 84.915C73.4451 84.915 72.5601 85.8 72.5601 86.89C72.5601 87.98 73.4451 88.865 74.5351 88.865C75.6251 88.865 76.5051 87.98 76.5051 86.89C76.5051 85.795 75.6251 84.915 74.5351 84.915Z" fill="#D9AF62" fill-opacity="0.2"/>
<path d="M80.5501 76.665C79.4601 76.665 78.5801 77.55 78.5801 78.64C78.5801 79.73 79.4651 80.615 80.5501 80.615C81.6401 80.615 82.5251 79.73 82.5251 78.64C82.5201 77.55 81.6401 76.665 80.5501 76.665Z" fill="#D9AF62" fill-opacity="0.2"/>
<path d="M80.8601 69.945C80.8601 71.035 81.7451 71.92 82.8351 71.92C83.9251 71.92 84.8051 71.035 84.8051 69.945C84.8051 68.855 83.9201 67.975 82.8351 67.975C81.7451 67.975 80.8601 68.86 80.8601 69.945Z" fill="#D9AF62" fill-opacity="0.2"/>
<path d="M90.3201 71.465C89.2351 71.465 88.3501 72.345 88.3501 73.435C88.3501 74.52 89.2301 75.405 90.3201 75.405C91.4051 75.405 92.2901 74.525 92.2901 73.435C92.2851 72.345 91.4051 71.465 90.3201 71.465Z" fill="#D9AF62" fill-opacity="0.2"/>
<path d="M97.385 68.805C97.385 69.895 98.27 70.78 99.36 70.78C100.45 70.78 101.335 69.895 101.335 68.805C101.335 67.715 100.45 66.83 99.36 66.83C98.27 66.835 97.385 67.715 97.385 68.805Z" fill="#D9AF62" fill-opacity="0.2"/>
<path d="M105.49 63.2099C106.58 63.2099 107.465 62.325 107.465 61.235C107.465 60.145 106.58 59.2599 105.49 59.2599C104.4 59.2599 103.515 60.145 103.515 61.235C103.515 62.325 104.4 63.2099 105.49 63.2099Z" fill="#D9AF62" fill-opacity="0.2"/>
<path d="M97.1251 60.73C98.2151 60.73 99.1 59.845 99.1 58.76C99.1 57.67 98.2151 56.785 97.1251 56.785C96.0351 56.785 95.1551 57.67 95.1551 58.76C95.1501 59.85 96.0351 60.73 97.1251 60.73Z" fill="#D9AF62" fill-opacity="0.2"/>
<path d="M88.0552 64.0399C88.0552 65.1299 88.9402 66.0099 90.0302 66.0099C91.1202 66.0099 92.0052 65.1249 92.0052 64.0399C92.0052 62.9499 91.1202 62.0649 90.0302 62.0649C88.9352 62.0649 88.0552 62.9499 88.0552 64.0399Z" fill="#D9AF62" fill-opacity="0.2"/>
<path d="M80.1551 63.71C81.2451 63.71 82.1301 62.825 82.1301 61.735C82.1301 60.645 81.2451 59.765 80.1551 59.765C79.0651 59.765 78.1851 60.65 78.1851 61.735C78.1851 62.825 79.0651 63.71 80.1551 63.71Z" fill="#D9AF62" fill-opacity="0.2"/>
<path d="M86.88 56.78C87.9708 56.78 88.855 55.8957 88.855 54.805C88.855 53.7142 87.9708 52.83 86.88 52.83C85.7893 52.83 84.905 53.7142 84.905 54.805C84.905 55.8957 85.7893 56.78 86.88 56.78Z" fill="#D9AF62" fill-opacity="0.2"/>
<path d="M112.4 58.21C112.475 58.21 112.52 58.14 112.595 58.13C111.885 57.57 111.25 56.915 110.5 56.405C110.595 57.405 111.375 58.21 112.4 58.21Z" fill="#D9AF62" fill-opacity="0.2"/>
<path d="M117.625 64.77C118.07 64.77 118.435 64.545 118.765 64.3C117.975 63.3 117.225 62.27 116.34 61.36C115.935 61.72 115.655 62.215 115.655 62.8C115.65 63.885 116.535 64.77 117.625 64.77Z" fill="#D9AF62" fill-opacity="0.2"/>
<path d="M110.165 70.62C111.255 70.62 112.14 69.735 112.14 68.645C112.14 67.555 111.255 66.675 110.165 66.675C109.075 66.675 108.195 67.56 108.195 68.645C108.195 69.735 109.08 70.62 110.165 70.62Z" fill="#D9AF62" fill-opacity="0.2"/>
<path d="M121.96 158.535C122.02 158.54 122.055 158.6 122.12 158.6C122.78 158.6 123.28 158.225 123.635 157.725C125.945 156.62 128.185 155.405 130.365 154.085C130.715 154.635 131.225 155.06 131.925 155.06C133.015 155.06 133.9 154.175 133.9 153.085C133.9 152.725 133.685 152.455 133.52 152.165C135.785 150.64 137.96 149 140.05 147.255C140.155 147.12 140.26 147.04 140.4 146.94C142.55 145.125 144.585 143.175 146.525 141.14C146.865 141.41 147.25 141.635 147.72 141.635C148.81 141.635 149.695 140.75 149.695 139.66C149.695 139.125 149.475 138.64 149.125 138.285C150.785 136.37 152.345 134.385 153.815 132.315C154.565 132.035 155.165 131.445 155.165 130.6C155.165 130.56 155.125 130.54 155.125 130.5C159.82 123.475 163.34 115.625 165.585 107.255C165.855 107.395 166.095 107.605 166.425 107.605C167.515 107.605 168.4 106.72 168.4 105.63C168.4 104.57 167.555 103.74 166.505 103.69C166.86 102.065 167.105 100.405 167.355 98.75C168.19 98.52 168.86 97.88 168.86 96.97C168.86 96.265 168.425 95.75 167.865 95.405C168.16 92.65 168.325 89.865 168.325 87.035C168.325 85.44 168.18 83.885 168.085 82.315C168.405 82.965 168.95 83.485 169.725 83.485C170.815 83.485 171.695 82.6 171.695 81.51C171.695 80.42 170.81 79.535 169.725 79.535C168.88 79.535 168.295 80.135 168.01 80.88C167.805 78.275 167.475 75.71 167.02 73.18C167.04 73.065 167.15 72.99 167.15 72.865C167.15 72.6 166.965 72.415 166.87 72.185C166 67.66 164.7 63.3 163.085 59.09L160.29 52.685C147.525 26.63 120.81 8.59998 89.8951 8.59998C46.6501 8.59998 11.4751 43.785 11.4751 87.03C11.4751 111.835 23.0801 133.95 41.1151 148.33C41.6801 148.78 42.2751 149.195 42.8551 149.63C44.8301 151.115 46.8701 152.51 48.9801 153.81C48.0451 153.965 47.2901 154.685 47.2901 155.665C47.2901 156.755 48.1751 157.64 49.2651 157.64C50.3551 157.64 51.2401 156.755 51.2401 155.665C51.2401 155.415 51.0601 155.24 50.9701 155.02C55.0201 157.35 59.3001 159.3 63.7651 160.885C64.9101 161.295 66.0451 161.73 67.2151 162.085C72.3151 163.63 77.6401 164.645 83.1201 165.115C83.9801 165.19 84.8601 165.2 85.7301 165.245C87.1201 165.32 88.4951 165.455 89.9051 165.455C90.8601 165.455 91.7851 165.345 92.7351 165.31C92.6901 165.475 92.5451 165.585 92.5451 165.765C92.5451 166.855 93.4301 167.735 94.5201 167.735C95.6101 167.735 96.4901 166.85 96.4901 165.765C96.4901 165.52 96.3101 165.35 96.2301 165.135C105.33 164.415 113.99 162.125 121.96 158.535ZM61.5851 63.615C62.3901 63.37 63.0451 62.745 63.0451 61.855V61.85C66.1801 58.505 69.9251 55.785 74.1051 53.79C74.1651 54.825 74.9851 55.66 76.0351 55.66C77.1251 55.66 78.0101 54.775 78.0101 53.685C78.0101 53.185 77.7851 52.755 77.4801 52.405C81.3801 51 85.5201 50.1 89.8951 50.1C91.0201 50.1 92.0751 50.335 93.1751 50.43C93.1751 51.52 94.0601 52.405 95.1451 52.405C96.0851 52.405 96.7651 51.695 96.9601 50.81C96.0401 50.63 95.0801 50.57 94.1251 50.5C95.0801 50.57 96.0351 50.63 96.9601 50.81C101.885 51.77 106.475 53.685 110.495 56.395C111.25 56.9 111.88 57.555 112.59 58.12C113.89 59.14 115.185 60.16 116.335 61.345C117.22 62.255 117.97 63.285 118.76 64.285C119.915 65.75 120.945 67.29 121.875 68.925C121.93 68.975 121.93 69.055 121.975 69.11C121.94 69.05 121.91 68.985 121.875 68.925C121.52 68.58 121.04 68.36 120.51 68.36C119.42 68.36 118.54 69.245 118.54 70.335C118.54 71.425 119.425 72.31 120.51 72.31C121.6 72.31 122.485 71.425 122.485 70.335C122.485 70.2 122.465 70.07 122.43 69.945C123.995 72.87 125.265 75.975 125.975 79.31L126.79 87.25C126.665 107.505 110.17 123.955 89.8901 123.955C82.2701 123.955 75.1851 121.63 69.3001 117.66C69.3201 117.55 69.4251 117.48 69.4251 117.365C69.4251 116.275 68.5401 115.39 67.4501 115.39C67.2151 115.39 67.0501 115.565 66.8401 115.64C58.4751 108.885 53.0101 98.685 52.9751 87.13C53.0201 87.135 53.0451 87.18 53.0901 87.18C54.1801 87.18 55.0651 86.295 55.0651 85.205C55.0651 84.21 54.2951 83.47 53.3401 83.335C54.1001 75.87 57.0351 69.105 61.5851 63.615Z" fill="#D9AF62" fill-opacity="0.2"/>
</svg>
