<svg width="234" height="60" viewBox="0 0 234 60" fill="none" xmlns="http://www.w3.org/2000/svg">
<path d="M54.6 48.6C54.6 51.9137 51.9137 54.6 48.6 54.6C45.2863 54.6 42.6 51.9137 42.6 48.6C42.6 45.2863 45.2863 42.6 48.6 42.6C51.9137 42.6 54.6 45.2863 54.6 48.6Z" fill="#9A7C46"/>
<path d="M56.9158 43.2491C60.058 36.8655 60.8292 29.5729 59.0915 22.6733C57.3539 15.7738 53.2206 9.71635 47.4295 5.58262C41.6385 1.44889 34.5668 -0.492056 27.477 0.10633C20.3871 0.704716 13.7408 3.80347 8.72449 8.84935C3.70823 13.8952 0.648643 20.5597 0.0919944 27.6529C-0.464654 34.7462 1.51788 41.8064 5.68562 47.573C9.85336 53.3396 15.935 57.4372 22.8447 59.1342C29.7544 60.8312 37.0423 60.0171 43.4073 56.8373L39.5795 49.1753C35.0317 51.4473 29.8245 52.0289 24.8875 50.8164C19.9505 49.6039 15.6052 46.6761 12.6273 42.5559C9.64948 38.4357 8.23296 33.3912 8.63068 28.323C9.02841 23.2549 11.2145 18.4931 14.7986 14.8878C18.3827 11.2825 23.1316 9.06847 28.1973 8.64093C33.263 8.21338 38.3157 9.60018 42.4534 12.5537C46.5911 15.5073 49.5444 19.8353 50.786 24.7651C52.0275 29.6949 51.4765 34.9054 49.2314 39.4665L56.9158 43.2491Z" fill="#9A7C46"/>
<path d="M45 30C45 38.2843 38.2843 45 30 45C21.7157 45 15 38.2843 15 30C15 21.7157 21.7157 15 30 15C38.2843 15 45 21.7157 45 30Z" fill="#D9D9D9"/>
<path d="M98.3752 27.9711C96.3067 27.9711 94.3952 27.6307 92.6408 26.9499C90.8865 26.243 89.3678 25.261 88.0848 24.0042C86.8017 22.7473 85.7936 21.2679 85.0605 19.5659C84.3535 17.864 84 16.0049 84 13.9887C84 11.9725 84.3535 10.1134 85.0605 8.41139C85.7936 6.7094 86.8017 5.22998 88.0848 3.97313C89.394 2.71628 90.9258 1.74746 92.6801 1.06667C94.4345 0.359688 96.3459 0.00619888 98.4145 0.00619888C100.405 0.00619888 102.277 0.346596 104.031 1.02739C105.785 1.682 107.265 2.67701 108.469 4.01241L106.623 5.85841C105.497 4.7063 104.254 3.88149 102.892 3.38399C101.53 2.8603 100.064 2.59845 98.4931 2.59845C96.8434 2.59845 95.3117 2.88648 93.8977 3.46254C92.4837 4.01241 91.2531 4.81103 90.2057 5.85841C89.1583 6.8796 88.3335 8.08408 87.7313 9.47185C87.1552 10.8334 86.8672 12.339 86.8672 13.9887C86.8672 15.6383 87.1552 17.157 87.7313 18.5447C88.3335 19.9063 89.1583 21.1108 90.2057 22.1582C91.2531 23.1794 92.4837 23.978 93.8977 24.5541C95.3117 25.1039 96.8434 25.3789 98.4931 25.3789C100.064 25.3789 101.53 25.117 102.892 24.5933C104.254 24.0697 105.497 23.2318 106.623 22.0796L108.469 23.9256C107.265 25.261 105.785 26.2691 104.031 26.9499C102.277 27.6307 100.391 27.9711 98.3752 27.9711Z" fill="#9A7C46"/>
<path d="M118.986 27.7355V0.241858H121.892V25.2218H137.288V27.7355H118.986Z" fill="#9A7C46"/>
<path d="M146.435 27.7355V0.241858H149.341V27.7355H146.435Z" fill="#9A7C46"/>
<path d="M165.121 20.9013L165.003 17.3664L181.656 0.241858H184.995L172.858 12.9675L171.209 14.7349L165.121 20.9013ZM162.607 27.7355V0.241858H165.514V27.7355H162.607ZM182.363 27.7355L170.502 14.0672L172.466 11.9463L185.82 27.7355H182.363Z" fill="#9A7C46"/>
<path d="M194.851 27.7355V0.241858H197.757V27.7355H194.851Z" fill="#9A7C46"/>
<path d="M211.023 27.7355V0.241858H213.419L232.39 24.122H231.133V0.241858H234V27.7355H231.604L212.673 3.8553H213.93V27.7355H211.023Z" fill="#9A7C46"/>
<path d="M89.5359 59.8588V45.5464H84V44.1061H96.7371V45.5464H91.2012V59.8588H89.5359Z" fill="#9A7C46"/>
<path d="M107.634 51.1498H115.96V52.5676H107.634V51.1498ZM107.814 58.4185H117.288V59.8588H106.149V44.1061H116.95V45.5464H107.814V58.4185Z" fill="#9A7C46"/>
<path d="M134.751 59.9938C133.566 59.9938 132.47 59.7988 131.465 59.4087C130.46 59.0036 129.59 58.441 128.855 57.7209C128.12 57.0008 127.542 56.1532 127.122 55.178C126.717 54.2028 126.514 53.1377 126.514 51.9825C126.514 50.8273 126.717 49.7621 127.122 48.7869C127.542 47.8118 128.12 46.9641 128.855 46.244C129.605 45.5239 130.483 44.9688 131.488 44.5787C132.493 44.1737 133.588 43.9711 134.773 43.9711C135.913 43.9711 136.986 44.1662 137.991 44.5562C138.996 44.9313 139.844 45.5014 140.534 46.2665L139.477 47.3242C138.831 46.6641 138.119 46.1915 137.339 45.9065C136.559 45.6064 135.718 45.4564 134.818 45.4564C133.873 45.4564 132.995 45.6214 132.185 45.9515C131.375 46.2665 130.67 46.7241 130.07 47.3242C129.47 47.9093 128.997 48.5994 128.652 49.3945C128.322 50.1747 128.157 51.0373 128.157 51.9825C128.157 52.9276 128.322 53.7978 128.652 54.5929C128.997 55.373 129.47 56.0631 130.07 56.6632C130.67 57.2483 131.375 57.7059 132.185 58.036C132.995 58.351 133.873 58.5086 134.818 58.5086C135.718 58.5086 136.559 58.3585 137.339 58.0585C138.119 57.7584 138.831 57.2783 139.477 56.6182L140.534 57.6759C139.844 58.441 138.996 59.0186 137.991 59.4087C136.986 59.7988 135.906 59.9938 134.751 59.9938Z" fill="#9A7C46"/>
<path d="M162.357 44.1061H164V59.8588H162.357V44.1061ZM152.501 59.8588H150.835V44.1061H152.501V59.8588ZM162.515 52.5901H152.321V51.1273H162.515V52.5901Z" fill="#9A7C46"/>
</svg>
