<svg width="219" height="56" viewBox="0 0 219 56" fill="none" xmlns="http://www.w3.org/2000/svg">
<path d="M50.96 45.36C50.96 48.4528 48.4528 50.96 45.36 50.96C42.2672 50.96 39.76 48.4528 39.76 45.36C39.76 42.2672 42.2672 39.76 45.36 39.76C48.4528 39.76 50.96 42.2672 50.96 45.36Z" fill="#E7CCB1"/>
<path d="M53.1214 40.3658C56.0542 34.4078 56.7739 27.6014 55.1521 21.1618C53.5303 14.7222 49.6725 9.06859 44.2676 5.21044C38.8626 1.35229 32.2623 -0.459252 25.6452 0.0992411C19.028 0.657735 12.8247 3.54991 8.14286 8.25939C3.46102 12.9689 0.6054 19.1891 0.0858615 25.8094C-0.433677 32.4298 1.41668 39.0193 5.30658 44.4014C9.19647 49.7836 14.8727 53.608 21.3217 55.1919C27.7708 56.7758 34.5728 56.016 40.5135 53.0482L36.9409 45.897C32.6963 48.0175 27.8362 48.5603 23.2284 47.4286C18.6205 46.297 14.5649 43.5644 11.7855 39.7188C9.00618 35.8733 7.68409 31.1651 8.0553 26.4348C8.42651 21.7046 10.4669 17.2602 13.812 13.8953C17.1572 10.5304 21.5895 8.46391 26.3175 8.06486C31.0455 7.66582 35.7614 8.96017 39.6232 11.7168C43.4851 14.4735 46.2415 18.513 47.4002 23.1141C48.559 27.7152 48.0448 32.5784 45.9493 36.8354L53.1214 40.3658Z" fill="#E7CCB1"/>
<path d="M42 28C42 35.732 35.732 42 28 42C20.268 42 14 35.732 14 28C14 20.268 20.268 14 28 14C35.732 14 42 20.268 42 28Z" fill="#D9D9D9"/>
<path d="M91.8169 26.1064C89.8862 26.1064 88.1022 25.7887 86.4648 25.1533C84.8274 24.4934 83.41 23.577 82.2124 22.4039C81.015 21.2308 80.0741 19.8501 79.3898 18.2615C78.7299 16.673 78.4 14.9379 78.4 13.0561C78.4 11.1743 78.7299 9.43915 79.3898 7.85063C80.0741 6.26211 81.015 4.88132 82.2124 3.70826C83.4344 2.5352 84.8641 1.63096 86.5015 0.995556C88.1388 0.335709 89.9229 0.00578562 91.8535 0.00578562C93.7109 0.00578562 95.4583 0.32349 97.0957 0.958898C98.733 1.56987 100.114 2.49854 101.238 3.74492L99.5151 5.46785C98.4642 4.39254 97.3034 3.62272 96.0326 3.15839C94.7618 2.66961 93.3932 2.42522 91.9269 2.42522C90.3872 2.42522 88.9576 2.69405 87.6379 3.2317C86.3182 3.74492 85.1695 4.4903 84.192 5.46785C83.2144 6.42096 82.4446 7.54514 81.8825 8.8404C81.3449 10.1112 81.076 11.5164 81.076 13.0561C81.076 14.5957 81.3449 16.0132 81.8825 17.3084C82.4446 18.5792 83.2144 19.7034 84.192 20.681C85.1695 21.6341 86.3182 22.3795 87.6379 22.9171C88.9576 23.4303 90.3872 23.6869 91.9269 23.6869C93.3932 23.6869 94.7618 23.4426 96.0326 22.9538C97.3034 22.465 98.4642 21.683 99.5151 20.6077L101.238 22.3306C100.114 23.577 98.733 24.5179 97.0957 25.1533C95.4583 25.7887 93.6987 26.1064 91.8169 26.1064Z" fill="#E7CCB1"/>
<path d="M111.053 25.8864V0.225734H113.766V23.5403H128.136V25.8864H111.053Z" fill="#E7CCB1"/>
<path d="M136.672 25.8864V0.225734H139.385V25.8864H136.672Z" fill="#E7CCB1"/>
<path d="M154.113 19.5079L154.003 16.2087L169.546 0.225734H172.662L161.334 12.103L159.795 13.7526L154.113 19.5079ZM151.767 25.8864V0.225734H154.479V25.8864H151.767ZM170.206 25.8864L159.135 13.1294L160.968 11.1499L173.432 25.8864H170.206Z" fill="#E7CCB1"/>
<path d="M181.861 25.8864V0.225734H184.573V25.8864H181.861Z" fill="#E7CCB1"/>
<path d="M196.955 25.8864V0.225734H199.191L216.897 22.5139H215.724V0.225734H218.4V25.8864H216.164L198.495 3.59828H199.668V25.8864H196.955Z" fill="#E7CCB1"/>
<path d="M83.5669 55.8682V42.51H78.4V41.1657H90.288V42.51H85.1211V55.8682H83.5669Z" fill="#E7CCB1"/>
<path d="M100.458 47.7398H108.23V49.0631H100.458V47.7398ZM100.626 54.524H109.469V55.8682H99.0721V41.1657H109.154V42.51H100.626V54.524Z" fill="#E7CCB1"/>
<path d="M125.767 55.9942C124.661 55.9942 123.639 55.8122 122.701 55.4481C121.763 55.0701 120.951 54.545 120.264 53.8729C119.578 53.2007 119.039 52.4096 118.647 51.4995C118.269 50.5893 118.08 49.5951 118.08 48.517C118.08 47.4388 118.269 46.4446 118.647 45.5345C119.039 44.6243 119.578 43.8332 120.264 43.1611C120.965 42.489 121.784 41.9709 122.722 41.6068C123.66 41.2287 124.682 41.0397 125.788 41.0397C126.853 41.0397 127.854 41.2217 128.792 41.5858C129.73 41.9359 130.521 42.468 131.165 43.1821L130.178 44.1692C129.576 43.5531 128.911 43.1121 128.183 42.846C127.455 42.566 126.671 42.4259 125.83 42.4259C124.948 42.4259 124.129 42.58 123.373 42.888C122.617 43.1821 121.959 43.6091 121.399 44.1692C120.839 44.7153 120.397 45.3594 120.075 46.1016C119.767 46.8297 119.613 47.6348 119.613 48.517C119.613 49.3991 119.767 50.2113 120.075 50.9534C120.397 51.6815 120.839 52.3256 121.399 52.8857C121.959 53.4318 122.617 53.8589 123.373 54.1669C124.129 54.461 124.948 54.608 125.83 54.608C126.671 54.608 127.455 54.468 128.183 54.1879C128.911 53.9079 129.576 53.4598 130.178 52.8437L131.165 53.8309C130.521 54.545 129.73 55.0841 128.792 55.4481C127.854 55.8122 126.846 55.9942 125.767 55.9942Z" fill="#E7CCB1"/>
<path d="M151.533 41.1657H153.067V55.8682H151.533V41.1657ZM142.334 55.8682H140.78V41.1657H142.334V55.8682ZM151.68 49.0841H142.166V47.7188H151.68V49.0841Z" fill="#E7CCB1"/>
</svg>
