<svg width="24" height="22" viewBox="0 0 24 22" fill="none" xmlns="http://www.w3.org/2000/svg">
<path d="M9.59988 0.440002C8.81051 0.440002 8.15988 1.09063 8.15988 1.88V3.32H1.43988C0.650508 3.32 -0.000117187 3.97063 -0.000117187 4.76V11.87C-0.00386719 11.9 -0.00386719 11.93 -0.000117187 11.96V20.12C-0.000117187 20.9094 0.650508 21.56 1.43988 21.56H22.5599C23.3493 21.56 23.9999 20.9094 23.9999 20.12V4.76C23.9999 3.97063 23.3493 3.32 22.5599 3.32H15.8399V1.88C15.8399 1.09063 15.1893 0.440002 14.3999 0.440002H9.59988ZM9.59988 1.4H14.3999C14.6699 1.4 14.8799 1.61 14.8799 1.88V3.32H9.11988V1.88C9.11988 1.61 9.32988 1.4 9.59988 1.4ZM1.43988 4.28H22.5599C22.8299 4.28 23.0399 4.49 23.0399 4.76V11.885C23.0399 11.9 23.0399 11.915 23.0399 11.93V11.96C23.0399 12.23 22.8299 12.44 22.5599 12.44H1.43988C1.16988 12.44 0.959883 12.23 0.959883 11.96C0.963633 11.93 0.963633 11.9 0.959883 11.87V4.76C0.959883 4.49 1.16988 4.28 1.43988 4.28ZM11.9999 9.56C11.4693 9.56 11.0399 9.98938 11.0399 10.52C11.0399 11.0506 11.4693 11.48 11.9999 11.48C12.5305 11.48 12.9599 11.0506 12.9599 10.52C12.9599 9.98938 12.5305 9.56 11.9999 9.56ZM0.959883 13.31C1.11176 13.3644 1.27113 13.4 1.43988 13.4H22.5599C22.7286 13.4 22.888 13.3644 23.0399 13.31V20.12C23.0399 20.39 22.8299 20.6 22.5599 20.6H1.43988C1.16988 20.6 0.959883 20.39 0.959883 20.12V13.31Z" fill="#D9AF62"/>
</svg>
