<svg width="314" height="984" viewBox="0 0 314 984" fill="none" xmlns="http://www.w3.org/2000/svg">
<path d="M137.875 153.9C144.175 207.425 151.025 261 159.825 314.2C168.65 367.65 180.35 420.45 191.7 473.4C214.725 580.825 239.9 687.8 263.95 794.975C270.775 825.4 277.6 855.8 284.425 886.225C291.35 917.05 299.8 948.6 303.525 979.975C304.05 984.325 298.325 985.625 296.925 981.475C287.8 954.875 282.4 926.425 275.875 899.075C269.3 871.5 263.05 843.85 256.65 816.25C244.15 762.425 231.6 708.6 219.275 654.725C194.925 548.425 170.3 442.4 152.725 334.725C142.95 274.9 135.425 214.85 134.75 154.15C134.7 152.425 137.675 152.1 137.875 153.9ZM207.7 133.475C194.4 133.35 155.825 137.5 149.275 154.525C156.825 156.55 187.525 161.775 189.4 173.525C188.725 169.35 187.075 165.425 184.65 162.275C189.025 170.775 194.4 178.6 200.6 185.4C202.65 180.2 202.825 174.075 201.05 168.8C205.025 172.9 208.3 177.875 210.65 183.4C211.7 180.25 212.025 176.775 211.575 173.45C213.85 178.85 215.325 184.7 215.925 190.7C216.525 185.425 217.125 180.125 217.725 174.85C218.25 181.95 218.775 189.075 219.325 196.175C220.525 192.725 220.975 188.925 220.65 185.25C222.55 192.825 224.45 200.425 226.35 208C229.75 203.875 230.575 197.225 228.325 192.225C233.3 202.275 237.175 213.05 239.85 224.225C238 212.725 236.15 201.25 234.3 189.75C240.275 201.575 246.275 213.375 252.25 225.2C251.925 220.075 251.025 214.975 249.575 210.125C251.625 215.475 253.675 220.85 255.725 226.2C255.425 221.675 255.125 217.15 254.8 212.625C256.05 215.325 257.325 218.025 258.575 220.725C258.175 218.25 257.8 215.75 257.4 213.275C259.075 219.525 260.75 225.8 262.425 232.05C263.825 223.15 264.2 214.05 263.5 205.075C267.5 219.15 268.275 234.5 265.725 249.125C269.1 239.075 272.475 229 275.85 218.95C274.875 228.4 273.875 237.85 272.9 247.3C274.15 237.425 275.4 227.575 276.65 217.7C277.175 231.2 277.7 244.7 278.225 258.175C280.6 245.775 281.35 233 280.425 220.4C280.825 233.95 281.225 247.5 281.65 261.05C282.925 249.475 284.2 237.925 285.475 226.35C287.475 242.2 286.875 258.525 283.725 274.2C286.55 263.925 288.45 253.325 289.4 242.625C291.6 257.85 291.125 273.625 288.025 288.725C294.925 260.55 295.875 230.55 290.8 202.05C289.25 193.3 287.1 184.575 283.15 176.925C279.75 170.3 275.1 164.65 270.025 159.65C252.925 142.725 230.325 133.675 207.7 133.475ZM131.3 147.65C145.45 154.175 156.625 166.95 158.975 184.5C159.35 180.975 159.725 177.45 160.1 173.925C167.475 180.875 172.95 190.45 175.575 201.05C174.925 198.65 175.4 195.9 176.775 193.925C180.025 200.775 182.2 208.3 183.15 216.075C183.95 213 185.4 210.15 187.35 207.875C189.575 213.3 191.075 219.1 191.8 225.05C192.15 220.525 192.5 216 192.85 211.475C193.8 217.675 194.75 223.9 195.725 230.1C195.775 222.85 193.7 215.65 189.95 209.925C197.075 218.675 201.825 229.95 203.425 241.875C200.5 230.65 197.6 219.45 194.675 208.225C201.525 218.425 206.3 230.45 208.575 243.125C207.925 239.475 207.25 235.825 206.6 232.15C207.175 235.475 207.1 238.975 206.375 242.3C206.7 240.525 207.95 238.975 209.475 238.525C211.075 244.55 212.125 250.8 212.55 257.1C213.375 254.05 215.575 251.525 218.225 250.6C220.2 256.45 221.55 262.6 222.225 268.85C221.45 265.325 221.975 261.45 223.65 258.325C225.95 265.025 226.925 272.325 226.45 279.55C226.05 275.5 226.75 271.3 228.475 267.725C230.375 274.025 231.4 280.675 231.5 287.35C231.725 284.7 233.2 282.225 235.25 281C237.6 288.2 238.85 295.875 238.925 303.6C239.2 299.55 240.2 295.55 241.85 291.925C242.125 296.95 242.4 301.95 242.675 306.975C243.5 303.35 244.3 299.7 245.125 296.075C245.45 303.9 245.8 311.725 246.125 319.575C246.025 315.625 246.875 311.625 248.575 308.15C248.55 318.325 248.525 328.5 248.525 338.675C250.6 333.475 252.675 328.3 254.775 323.1C255.925 330.2 257.1 337.3 258.25 344.4C259.45 338.9 259.825 333.15 259.375 327.525C259.575 338.5 260.95 349.425 263.45 359.975C270.975 327.55 262.85 292.7 248.25 264.025C233.65 235.35 213 211.625 193.175 187.525C175.2 165.775 157.225 153 131.3 147.65ZM170.975 176.475C166.925 171.525 163.025 168.3 157.35 165.65C153.25 163.75 142.1 163.825 139.3 161.125C150.4 171.9 154.525 181.025 155.65 197.55C155.675 197.625 155.675 197.7 155.675 197.775C155.5 206.45 155.325 215.125 155.15 223.8C157 216.275 158.825 208.75 160.675 201.225C162.3 219.525 160.225 238.275 154.675 255.625C161 247.475 166.125 238.1 169.725 228C169.525 236 169.35 244 169.15 252C170.925 245.75 172.725 239.5 174.5 233.25C174.9 241.6 174.35 250.025 172.9 258.25C173.425 253.75 175.075 249.4 177.575 245.875C177.45 254.65 176.225 263.4 173.925 271.775C177.3 266.125 180.65 260.475 184.025 254.825C182.075 268.525 178.425 281.925 173.225 294.5C179.825 284.125 184.875 272.45 188.1 260.15C186.9 280.675 183.175 301.05 177.125 320.475C182.35 304.15 186.725 287.475 190.275 270.55C191 277.25 191.725 283.95 192.45 290.65C193.4 286.35 194.35 282.025 195.3 277.725C195.45 293.85 192.7 310.05 187.275 324.975C191.925 314.55 195.825 303.675 198.9 292.525C203.925 311.475 188.675 330.375 188.8 350.275C196.05 337.075 200.3 321.7 200.975 306.15C199.275 320.15 198.775 334.325 199.5 348.375C201.275 338.825 203.725 329.45 206.825 320.325C204.075 328.425 202.35 336.95 201.725 345.6C203.275 337.75 205.75 330.125 209.075 323C208.55 335 207.025 346.95 204.5 358.625C208 348.8 210.875 338.675 213.125 328.375C209.5 349.125 204.6 369.6 198.425 389.55C202.7 377.125 206.975 364.7 211.25 352.275C208.425 360.4 207.3 369.275 208.025 377.925C210.8 372.425 212.025 365.875 211.4 359.6C209.725 367.425 209.65 375.675 211.2 383.475C212.4 379.55 213.575 375.625 214.775 371.675C212.45 384.5 211.525 397.65 212.025 410.7C222.4 391.05 225.85 367.4 225.025 344.55C224.2 321.7 219.35 299.375 214.15 277.375C208.975 255.4 203.375 233.375 194.15 213.325C188.05 200.075 179.875 187.35 170.975 176.475ZM192.3 122.85C184 120.925 173.1 123.925 165.65 128.475C177.175 120.575 187.55 116.975 201 118.8C193.425 118 184.9 115.375 178.025 112.15C186.65 109.25 195.325 110.175 204.125 110.225C198.75 107.875 191.65 106.15 188.5 100.4C194.125 99.65 200.575 106.975 205.75 109.425C202.175 103.95 198.35 98.7 194.85 93.125C198.75 96.65 202.325 100.7 204.6 105.825C201.875 100.65 199.05 94.475 195.1 90.575C199.675 101.4 210.825 106.775 214.6 118.275C209.675 106.25 199 85.675 200.95 72.15C206.4 84.875 218.8 100.125 221.05 113.9C218.95 99.8 208.475 82.575 212.025 68.5C215.425 85.575 219.675 103.2 228.9 117.4C221.45 102.225 222.325 83.3 214.7 67.925C225.425 76.125 240.125 77.975 251.725 85.375C247.225 78.825 240.975 74.05 234.275 70.975C246.65 73.05 257.425 81.85 270 83.15C261.9 76.975 250.775 67.675 241.275 65.925C253.175 71.475 267.125 69.725 276.35 83.875C274.75 80.075 273.05 76.25 270.95 72.775C273.475 76.275 275.85 79.925 278.05 83.725C276.925 78.35 274.375 73.475 270.6 70.05C274.825 76.325 280.225 83.95 285.875 88.525C281.825 80.425 277.25 72.5 273.575 64.2C280.55 75.25 288.375 86.95 294.325 99.175C291.575 85.425 287.575 71.4 286.15 57.4C291.7 69.175 298.4 86.3 299.975 99.825C300.3 91.925 300.8 84.025 301.4 76.15C302.15 81.45 304 86.4 306.65 90.825C302.625 81.55 301 70.775 298.65 60.825C301.925 67.925 307.275 76.2 312.175 81.8C319.05 73.45 290.55 49.575 284.9 46.5C289.55 46.725 294.275 46.6 298.75 47.925C296.25 45.75 293.625 43.8 290.75 42.45C292.2 43.25 293.675 44.05 295.15 44.875C292.825 42.925 290.025 41.65 287.2 40.7C288.275 40.45 289.9 39.6 290.7 39.425C286.5 36.475 281.75 37.35 277 37.775C281.5 36.325 286.35 35.5 290.825 33.95C283.05 33.425 274.85 35.475 267.05 36.15C270.975 32.275 277.375 29.525 282.575 28.925C275.425 33.15 265.075 34.3 257.2 35.975C260.9 32.25 264.7 28.6 268.8 25.5C260.925 27.925 253.85 33.7 245.8 35.125C247.975 32.25 251 29.3 252.8 26.625C246.45 29.2 239.9 36.425 233.8 37.825C236.3 33.9 239.15 30.3 241.975 26.7C232.45 32.525 224.8 42.325 216.25 49.775C221.275 42.125 228.6 33.275 235.75 28.15C216.65 38.475 203.075 61.925 188.425 78.6C165.5 104.725 151.35 133.95 137.275 167C142.775 152.75 153.675 144.5 164.125 135.525C173.35 127.575 183.925 129.275 192.3 122.85ZM124.75 212.3C129.15 198.05 133.175 184.325 140.5 171.6C143.65 166.1 158.95 139.975 165.375 140.925C161.05 140.3 156.925 143.15 153.35 146.075C121.175 172.275 93.05 208.8 78.8501 251.475C65.6501 291.075 63.7001 335.4 73.3501 376C72.9501 361.8 72.5251 347.6 72.1251 333.4C72.9501 341.925 73.8001 350.425 74.6251 358.95C74.7751 346.75 74.9251 334.525 75.0751 322.325C77.0251 330.025 78.5501 337.875 79.6251 345.825C78.1501 332.9 77.125 319.925 76.6001 306.9C79.7251 316.5 81.5751 326.675 82.05 336.95C80.9501 321.225 79.8501 305.525 78.75 289.8C79.8251 299.25 82.15 308.475 85.625 317.075C85.2251 306.4 84.8501 295.75 84.4501 285.075C86.2501 292.325 88.0501 299.55 89.8501 306.8C90.3001 296.2 90.7501 285.6 91.2001 275C93.5001 283.8 95.8001 292.625 98.1001 301.425C95.4751 285.225 96.1751 268.25 100.125 252.3C102.375 261.875 104.6 271.425 106.85 281C105.375 269.775 105.25 258.3 106.5 247.025C109.1 253.325 109.925 260.6 108.825 267.5C108.325 253.35 109.475 239.075 112.275 225.225C114.125 232.525 114.45 240.35 113.175 247.875C114.725 238.2 114.125 228.125 111.475 218.85C112.45 225.7 113.4 232.575 114.375 239.425C115.85 225.975 118.1 212.625 121.075 199.5C122.025 208.1 121.35 216.975 119.125 225.3C121.8 216.55 123.425 207.375 123.975 198.15C123.825 202.825 124.075 207.6 124.75 212.3ZM142.675 95.1C151.35 92.75 160.6 93.55 168.8 97.35C166.05 92 162.175 87.4 157.6 84.1C161.4 86.775 165.175 89.45 168.975 92.125C165.75 86.25 162.525 80.4 159.3 74.525C163.975 78.625 168.625 82.725 173.3 86.825C167.55 77 161.825 67.175 156.075 57.375C165.7 67.3 175.3 77.225 184.925 87.175C177.625 75.45 170.325 63.725 163.025 51.975C168.2 51.675 173.4 51.975 178.525 52.85C174.15 50.525 169.775 48.175 165.375 45.85C170.175 47.2 175 48.525 179.8 49.875C177.375 47 174.95 44.125 172.525 41.25C179.7 44.15 186.55 48.125 192.85 53.025C187.6 47.9 182.375 42.8 177.125 37.675C187.575 42.125 197.475 48.275 206.425 55.875C201.925 41 194.9 27.2 185.85 15.45C192.125 18.325 198.375 21.225 204.65 24.1C200.5 19.95 195.6 16.775 190.375 14.825C199.45 18.2 208.025 23.3 215.625 29.925C209.875 20.375 202.025 12.55 193 7.375C200.65 10.3 208.3 13.225 215.95 16.15C206.2 10.775 196.45 5.375 186.7 0C178.775 3.05 172.8 10.575 167.225 17.775C168.825 15.35 170.425 12.925 172.025 10.5C162.8 19.025 155.8 30.725 152.15 43.675C154.275 38.5 155.475 32.825 155.65 27.125C151.025 38.35 147.725 50.275 145.85 62.5C147.65 50.125 149.45 37.75 151.25 25.375C139.625 47.1 134.7 73.475 137.55 98.6C137 92.275 136.475 85.925 135.925 79.6C135.875 84.175 135.85 88.725 135.8 93.3C135.825 90.2 134.425 86.125 133.475 83.425C128.225 91.4 131.15 106.7 133.025 115.6C131.15 108.2 129.275 100.8 127.4 93.4C127 102.425 129.325 111.225 131.625 119.825C127.2 112.125 124.25 103.25 123.05 94.075C128.075 107.425 127.5 122.75 131.075 136.725C133.95 147.9 139.475 158.1 141.125 169.625C141.45 163.65 146.25 102.175 158.375 114C152.6 108.325 147.325 102 142.675 95.1ZM49.2751 153.1C45.8501 153.4 42.3251 153.75 39.1751 155.425C35.8751 157.175 33.2501 160.2 30.7751 163.3C16.5251 181.225 5.95005 203 0.175049 226.35C7.55005 214.55 14.9251 202.75 22.3001 190.95C17.7001 199.775 14.1001 209.275 11.5751 219.125C17.8501 204.975 25.4501 191.6 34.2001 179.3C28.4501 190.5 23.4501 202.2 19.2501 214.25C25.2251 203.1 31.2001 191.95 37.1751 180.8C34.8501 187.8 32.5501 194.8 30.2251 201.8C33.6001 194.025 36.975 186.25 40.35 178.475C37.55 188.25 34.7501 198.05 31.9501 207.825C35.7751 198.65 39.6001 189.475 43.4251 180.275C41.1251 190.025 38.8001 199.75 36.5001 209.5C40.5751 198.975 44.675 188.475 48.75 177.95C45.0251 190.275 42.825 203.175 42.225 216.175C46.825 198.5 54.2251 181.775 64.0001 167.125C61.7751 177.075 60.2501 187.225 59.5001 197.45C62.5751 188.975 65.675 180.5 68.75 172C68.125 178.55 67.4751 185.1 66.8501 191.65C67.7751 187.475 68.6751 183.3 69.6001 179.125C68.7251 183.8 68.2751 188.6 68.2751 193.375C70.0501 188.35 71.8501 183.35 73.6251 178.325C72.6751 184.025 71.7001 189.725 70.7501 195.425C73.5751 190.875 75.525 185.65 76.425 180.175C75.8 184.35 75.6751 188.6 76.0501 192.8C77.2001 189 78.3251 185.2 79.4751 181.375C79.4001 184.15 79.7501 186.95 80.5251 189.575C81.2501 186.25 81.9501 182.9 82.675 179.575C83.9 182.15 84.6251 185.025 84.8001 187.975C86.4501 181.55 88.1001 175.125 89.7501 168.675C89.7001 177.5 88.5251 186.325 86.3251 194.775C88.5001 184.7 93.5251 175.425 100.4 168.725C99.2251 173.925 98.0751 179.125 96.9001 184.325C100.1 176.55 104.975 169.7 110.975 164.55C109.05 169.35 107.125 174.125 105.175 178.925C108.35 176.55 110.9 173.075 112.4 169.075C110.675 173.625 108.95 178.15 107.2 182.7C117.6 175.175 130.5 168.45 142.45 174.75C144.35 175.75 140.325 166.275 140.075 165.925C138.325 163.425 134.075 160.925 131.675 159.275C125.125 154.825 119.575 154.1 111.825 153.375C91.0751 151.425 70.1251 151.325 49.2751 153.1ZM111.8 151.65C126.575 152.7 134.95 167.75 143.35 179.6C145.825 164.875 137.825 143.4 130.675 131.775C122.725 118.875 111.025 108.325 98.4251 103.05C76.3251 93.8 50.7001 97.65 30.1251 111.275C16.9001 120.05 4.97505 133.975 2.70005 151.325C10.6251 141.05 18.5251 130.775 26.4501 120.5C21.8001 127.525 17.1501 134.55 12.4751 141.55C18.7001 135.1 24.9251 128.65 31.1751 122.2C27.2001 128.875 23.2251 135.575 19.2251 142.25C22.6001 137.275 26.55 132.85 30.975 129.125C28.225 133.4 25.5001 137.675 22.7501 141.95C27.2751 138.275 31.8001 134.575 36.3251 130.9C33.8751 135.85 31.4501 140.775 29.0001 145.725C31.9001 142.65 34.8251 139.55 37.7251 136.475C35.7251 141.925 33.7251 147.35 31.7251 152.8C38.6251 137.625 50.8751 125.725 64.9751 120.475C56.3751 128.475 49.4751 138.9 45.0251 150.55C50.1751 139.525 57.9251 130.125 67.1751 123.625C62.8001 128.4 59.1751 134.075 56.5001 140.3C63.1751 134.025 69.8751 127.725 76.5751 121.45C72.3251 125.8 68.8501 131.175 66.4501 137.1C71.4501 133.35 75.9751 128.75 79.8501 123.5C78.5251 126.05 77.6751 128.925 77.425 131.875C79.5751 129.7 81.7251 127.525 83.9001 125.375C83.0251 131.175 82.125 136.975 81.25 142.775C84.6001 135.275 88.5001 128.1 92.8751 121.35C90.7501 128.425 88.6251 135.5 86.5001 142.575C90.3001 136.275 94.1001 129.975 97.9001 123.675C94.9751 131 92.8501 138.775 91.6251 146.7C96.3751 141.1 102.575 137.175 109.2 135.575C108.8 139.675 107.375 143.65 105.15 146.9C111.05 145.125 117.225 144.55 123.275 145.2C119.4 147.35 115.6 149.5 111.8 151.65ZM113.625 68.125C108.825 61.375 103.15 55.05 96.0001 52.125C91.1501 50.125 85.8751 49.8 80.7001 50.3C69.5001 51.4 57.9501 56.95 51.8501 67.95C58.5751 64.65 65.6251 62.25 72.8001 60.75C68.0251 62.65 63.5501 65.675 59.7751 69.6C64.8501 68.25 69.675 65.55 73.75 61.75C70.4 63.875 67.5751 67.1 65.7251 70.975C69.3751 70.15 72.9001 68.375 75.9251 65.825C73.8501 68.75 71.7501 71.7 69.6751 74.625C72.9501 72.5 76.2501 70.4 79.5251 68.275C76.9751 70.35 74.875 73.15 73.4751 76.375C77.8 74.8 81.8501 72.275 85.4001 68.975C78.1501 75.675 72.7251 85 70.1001 95.25C76.1001 84.425 84.6751 75.5 94.6001 69.725C90.1001 75.575 86.05 81.875 82.5 88.55C87.1001 84.5 91.6751 80.425 96.2751 76.35C93.7001 78.85 91.6251 82.075 90.2751 85.625C94.675 84.525 98.8751 82.375 102.525 79.325C99.7501 82.45 96.9501 85.6 94.1751 88.725C97.9751 87.75 101.65 86.025 105 83.65C103.225 85.6 101.45 87.525 99.7001 89.475C105.425 86.475 111.925 85.6 118.05 86.975C114.275 92.1 110.5 97.25 106.75 102.375C110.7 100.45 114.625 98.525 118.575 96.575C114.7 100.4 111.475 105.1 109.125 110.3C111.525 109.15 113.9 108 116.3 106.875C114.35 110.625 111.75 113.925 108.7 116.5C122.425 132.225 127.45 149.225 132.05 170.775C130.525 163.5 135.7 151.05 136.325 143.45C137 135.125 136.05 127.125 134.525 118.85C131.125 100.35 124 82.75 113.625 68.125Z" fill="url(#paint0_linear_131_504)" fill-opacity="0.05"/>
<defs>
<linearGradient id="paint0_linear_131_504" x1="156.737" y1="-296.433" x2="156.737" y2="674.561" gradientUnits="userSpaceOnUse">
<stop/>
<stop offset="0.2684" stop-color="#071407"/>
<stop offset="0.5877" stop-color="#047E04"/>
<stop offset="1"/>
</linearGradient>
</defs>
</svg>
